<svg id="svg8" xmlns="http://www.w3.org/2000/svg" viewBox="0 0 120.46 168.49"><defs><style>.cls-1{isolation:isolate;font-size:142.94px;font-family:Baskerville;}.cls-1,.cls-2{fill:#4f4f4f;}.cls-2{opacity:0.98;}</style></defs><g id="layer1"><g id="text879"><text class="cls-1" transform="translate(0 119.28) scale(1.02 1)">S</text></g><g id="text883"><g id="path1436"><path class="cls-2" d="M72.05,69.77V98.45a51.87,51.87,0,0,0,.83,10.86A12.17,12.17,0,0,0,76,115.13a12.69,12.69,0,0,0,4.73,3.09,26.27,26.27,0,0,0,7,1.15V121L39.75,121l-.24-3.35c.69,0,1.43,0,2.21,0a23.68,23.68,0,0,0,3.62-.49,20.17,20.17,0,0,0,5.16-3.22c1.4-1.48,2.65-2.36,3.64-4.83s1.47-6,1.47-10.58v-53C55.2,40,53.73,35.63,52,33.65a30.48,30.48,0,0,0-3.34-3.1,20,20,0,0,0-2-1.46,18.55,18.55,0,0,0-4.86-2c-.9-.27-1.66-.43-2.16-.53l.17-3.18,78.49-.44,2.17,23.36-1.72.36a49,49,0,0,0-3.46-8.2,24.52,24.52,0,0,0-9.9-9.7,26.71,26.71,0,0,0-8.48-2.81,86.77,86.77,0,0,0-13.21-.79H72.05V67.54h3q13.29,0,19.29-5.68a16.12,16.12,0,0,0,4-5.75,31,31,0,0,0,1.8-8.77l1.73.07L101.4,91H99.6q-.82-7.33-2.85-11.29a15.32,15.32,0,0,0-6-6.47,21.91,21.91,0,0,0-7.43-2.59A47,47,0,0,0,72.05,69.77Z"/></g></g></g></svg>